M48
; DRILL file {KiCad (6.0.2)} date Wed Jun 22 13:43:40 2022
; FORMAT={-:-/ absolute / inch / decimal}
; #@! TF.CreationDate,2022-06-22T13:43:40-03:00
; #@! TF.GenerationSoftware,Kicad,Pcbnew,(6.0.2)
; #@! TF.FileFunction,Plated,1,2,PTH
FMAT,2
INCH
; #@! TA.AperFunction,Plated,PTH,ComponentDrill
T1C0.0276
; #@! TA.AperFunction,Plated,PTH,ComponentDrill
T2C0.0295
; #@! TA.AperFunction,Plated,PTH,ComponentDrill
T3C0.0315
; #@! TA.AperFunction,Plated,PTH,ComponentDrill
T4C0.0354
; #@! TA.AperFunction,Plated,PTH,ComponentDrill
T5C0.0394
; #@! TA.AperFunction,Plated,PTH,ComponentDrill
T6C0.0512
%
G90
G05
T1
X4.6Y-3.22
X4.6Y-3.42
X4.9Y-3.22
X4.9Y-3.42
X5.2Y-3.22
X5.2Y-3.42
X5.8185Y-2.4528
X5.8185Y-2.6528
X6.0732Y-2.3031
X6.2732Y-2.3031
T2
X5.3587Y-2.2925
X5.3587Y-2.3425
X5.3587Y-2.3925
T3
X6.2744Y-1.9638
X6.2744Y-2.0976
T4
X4.6Y-2.92
X4.6Y-3.02
X4.9Y-2.92
X4.9Y-3.02
X5.2Y-2.92
X5.2Y-3.02
T5
X4.5152Y-3.65
X4.6152Y-3.65
X4.7152Y-3.65
X4.8152Y-3.65
X4.875Y-1.75
X4.9152Y-3.65
X4.975Y-1.75
X4.9902Y-2.0965
X4.9902Y-2.2965
X5.0152Y-3.65
X5.075Y-1.75
X5.1152Y-3.65
X5.175Y-1.75
X5.2152Y-3.65
X5.275Y-1.75
X5.3152Y-3.65
X5.375Y-1.75
X5.4152Y-3.65
X5.4472Y-3.4904
X5.475Y-1.75
X5.55Y-3.49
X5.575Y-1.75
X5.575Y-3.65
X5.675Y-3.65
X5.775Y-1.75
X5.775Y-3.65
X5.7771Y-1.8496
X5.7776Y-1.9524
X5.875Y-1.75
X5.875Y-3.65
X5.975Y-1.75
X5.975Y-3.65
X6.075Y-1.75
X6.075Y-3.65
X6.0752Y-1.8492
X6.0756Y-3.4437
X6.0756Y-1.952
X6.076Y-3.5465
X6.175Y-1.75
X6.175Y-3.65
X6.275Y-1.75
X6.275Y-3.65
T6
X4.6Y-2.1
X4.6Y-2.3
T0
M30
